<svg width="30" height="29" viewBox="0 0 30 29" fill="none" xmlns="http://www.w3.org/2000/svg">
<path d="M15 -0.130127C6.7175 -0.130127 0 6.58612 0 14.8699C0 21.4974 4.2975 27.1199 10.2587 29.1036C11.0075 29.2424 11.25 28.7774 11.25 28.3824V25.5899C7.0775 26.4974 6.20875 23.8199 6.20875 23.8199C5.52625 22.0861 4.5425 21.6249 4.5425 21.6249C3.18125 20.6936 4.64625 20.7136 4.64625 20.7136C6.1525 20.8186 6.945 22.2599 6.945 22.2599C8.2825 24.5524 10.4538 23.8899 11.31 23.5061C11.4438 22.5374 11.8325 21.8749 12.2625 21.5011C8.93125 21.1199 5.42875 19.8336 5.42875 14.0874C5.42875 12.4486 6.015 11.1111 6.97375 10.0611C6.81875 9.68237 6.305 8.15612 7.12 6.09112C7.12 6.09112 8.38 5.68862 11.2463 7.62862C12.4425 7.29612 13.725 7.12987 15 7.12362C16.275 7.12987 17.5588 7.29612 18.7575 7.62862C21.6213 5.68862 22.8787 6.09112 22.8787 6.09112C23.695 8.15737 23.1812 9.68362 23.0262 10.0611C23.9887 11.1111 24.57 12.4499 24.57 14.0874C24.57 19.8486 21.0613 21.1174 17.7213 21.4886C18.2588 21.9536 18.75 22.8661 18.75 24.2661V28.3824C18.75 28.7811 18.99 29.2499 19.7512 29.1024C25.7075 27.1161 30 21.4949 30 14.8699C30 6.58612 23.2838 -0.130127 15 -0.130127Z" fill="white"/>
</svg>
