<svg width="30" height="23" viewBox="0 0 30 23" fill="none" xmlns="http://www.w3.org/2000/svg">
<path fill-rule="evenodd" clip-rule="evenodd" d="M22.1404 22.75C27.8168 22.5625 30 18.6786 30 18.6786C30 10.0537 26.3014 3.0627 26.3014 3.0627C22.6027 0.169867 19.0839 0.250223 19.0839 0.250223L18.7243 0.67879C23.0908 2.07163 25.1199 4.08054 25.1199 4.08054C22.4486 2.55377 19.8288 1.80378 17.3887 1.50914C15.5394 1.29486 13.7671 1.34843 12.2003 1.56271L11.7637 1.61628C10.8647 1.69664 8.68151 2.04485 5.93322 3.30376C4.98288 3.75912 4.41781 4.08054 4.41781 4.08054C4.41781 4.08054 6.54966 1.96449 11.1729 0.571648L10.9161 0.250223C10.9161 0.250223 7.39726 0.169867 3.69863 3.0627C3.69863 3.0627 0 10.0537 0 18.6786C0 18.6786 2.15753 22.5625 7.8339 22.75C7.8339 22.75 8.78425 21.5447 9.55479 20.5268C6.29281 19.509 5.05993 17.3661 5.05993 17.3661L5.77911 17.8215L5.88185 17.9018L5.98245 17.9621L6.01241 17.9755L6.11301 18.0358C6.75514 18.4108 7.39726 18.7054 7.98801 18.9465C9.04109 19.375 10.2997 19.8036 11.7637 20.0982C13.6901 20.4732 15.9503 20.6072 18.4161 20.125C19.6233 19.9107 20.8562 19.5357 22.1404 18.9733C23.0394 18.625 24.0411 18.1161 25.0942 17.3929C25.0942 17.3929 23.8099 19.5893 20.4452 20.5804C21.2158 21.5982 22.1404 22.75 22.1404 22.75ZM10.1969 10.2412C8.73288 10.2412 7.57705 11.5805 7.57705 13.2144C7.57705 14.8483 8.75856 16.1876 10.1969 16.1876C11.661 16.1876 12.8168 14.8483 12.8168 13.2144C12.8425 11.5805 11.661 10.2412 10.1969 10.2412ZM19.5719 10.2412C18.1079 10.2412 16.9521 11.5805 16.9521 13.2144C16.9521 14.8483 18.1336 16.1876 19.5719 16.1876C21.036 16.1876 22.1918 14.8483 22.1918 13.2144C22.1918 11.5805 21.036 10.2412 19.5719 10.2412Z" fill="white"/>
</svg>
