<svg width="30" height="25" viewBox="0 0 30 25" fill="none" xmlns="http://www.w3.org/2000/svg">
<path d="M30 3.19631C28.8962 3.68631 27.71 4.01631 26.465 4.16506C27.7363 3.40381 28.7125 2.19756 29.1712 0.760059C27.9825 1.46506 26.665 1.97756 25.2625 2.25381C24.1412 1.05756 22.54 0.310059 20.77 0.310059C16.7962 0.310059 13.8763 4.01756 14.7738 7.86631C9.66 7.61006 5.125 5.16006 2.08875 1.43631C0.47625 4.20256 1.2525 7.82131 3.9925 9.65381C2.985 9.62131 2.035 9.34506 1.20625 8.88381C1.13875 11.7351 3.1825 14.4026 6.1425 14.9963C5.27625 15.2313 4.3275 15.2863 3.3625 15.1013C4.145 17.5463 6.4175 19.3251 9.1125 19.3751C6.525 21.4038 3.265 22.3101 0 21.9251C2.72375 23.6713 5.96 24.6901 9.435 24.6901C20.8625 24.6901 27.3187 15.0388 26.9287 6.38256C28.1312 5.51381 29.175 4.43006 30 3.19631Z" fill="white"/>
</svg>
