<svg width="540" height="414" viewBox="0 0 540 414" fill="none" xmlns="http://www.w3.org/2000/svg">
<path d="M372.319 3.61572L378.191 0C384.064 4.21834 387 10.7718 387 19.6605C378.718 33.8221 370.21 53.4072 361.477 78.4159L359.218 82.0317L357.185 87.6812L354.927 95.3646L341.826 127.454L337.761 135.138L335.502 142.595L330.985 157.962L324.886 167.227L319.014 164.967C317.357 152.463 312.162 139.431 303.429 125.872C302.977 121.654 301.32 116.456 298.459 110.279C298.61 104.555 296.954 98.679 293.49 92.6528L288.521 73.2183L284.907 67.3428L285.133 61.4673C293.264 51.524 298.911 38.9443 302.073 23.7282C305.537 18.1539 309.075 10.6212 312.689 1.12991L372.319 3.61572ZM204.95 4.06769C210.371 4.369 216.846 3.38974 224.375 1.12991C231 2.93777 237.851 7.68341 244.929 15.3668C245.832 29.9804 250.952 44.3679 260.288 58.5295C260.739 69.3766 264.654 81.7304 272.033 95.5906C272.033 97.5491 273.313 98.905 275.873 99.6583C275.421 110.204 278.131 121.202 284.004 132.652L285.359 144.403C287.317 151.785 290.78 160.9 295.749 171.747C296.502 177.17 298.158 183.648 300.718 191.181L302.299 197.057L304.106 200.898C303.956 202.857 304.483 204.816 305.687 206.774L309.075 216.491L312.689 226.435C313.291 234.721 316.68 243.835 322.853 253.778L322.627 259.654L328.048 269.371C329.253 278.712 333.319 287.902 340.245 296.941L340.019 304.624C342.579 310.199 345.44 318.033 348.602 328.127L354.023 337.844C354.475 346.883 357.938 355.395 364.413 363.38C364.865 374.679 368.78 387.033 376.158 400.441L377.965 406.317L375.707 414C368.931 412.795 361.853 412.493 354.475 413.096L341.149 412.418L333.469 412.192L319.917 411.514L314.27 411.288L304.558 410.836C298.535 400.592 293.34 387.56 288.973 371.741L285.359 365.64L285.585 359.99C285.284 358.634 284.079 357.278 281.971 355.922C281.218 344.021 277.228 332.345 270 320.895L268.419 311.178L260.062 285.642L254.641 273.891L251.253 265.981L249.672 258.298L246.284 248.581L242.896 238.638L229.344 195.701L225.73 191.859L223.923 183.95L220.761 170.391C218.803 163.611 215.942 156.455 212.178 148.923L209.015 133.33L203.595 121.579L200.432 107.794L195.237 94.2347C192.678 85.4967 188.612 75.0262 183.041 62.8231L181.459 56.9476C180.405 52.1266 178.071 46.929 174.458 41.3548C173.554 33.2194 170.015 25.31 163.842 17.6266L164.519 6.10153C175.963 1.28057 189.44 0.60262 204.95 4.06769ZM209.467 254.682L213.533 246.999L221.212 249.259C223.32 259.955 227.236 272.987 232.958 288.354L235.894 307.788C251.102 328.579 251.403 351.704 236.797 377.165C235.442 387.711 231.753 398.407 225.73 409.254C216.695 410.61 207.133 410.234 197.044 408.124L164.068 410.61L153 404.283L153.452 388.916C160.981 377.918 168.058 362.777 174.683 343.493L176.942 339.878L181.008 332.42L183.492 320.895L187.558 315.246L189.817 309.596L192.075 300.105L196.141 294.455C197.496 286.169 200.508 276.678 205.176 265.981C205.326 262.064 206.757 258.298 209.467 254.682Z" fill="white"/>
<path d="M434 363C434 343.225 440.823 333.338 454.469 333.338H460.683C468.968 333.338 473.11 328.211 473.11 317.958V251.31C473.11 240.568 474.572 231.657 477.497 224.577C480.664 217.498 485.903 211.639 493.214 207C485.903 202.362 480.664 196.502 477.497 189.423C474.572 182.343 473.11 173.432 473.11 162.69V96.0423C473.11 85.7887 468.968 80.662 460.683 80.662H454.469C440.823 80.662 434 70.7747 434 51H469.821C482.248 51 491.63 54.9061 497.966 62.7183C504.301 70.5305 507.469 81.2723 507.469 94.9437V165.62C507.469 174.653 509.053 181.488 512.221 186.127C515.389 190.521 520.506 192.718 527.572 192.718C530.984 192.718 533.908 194.061 536.345 196.746C538.782 199.432 540 202.85 540 207C540 211.394 538.782 214.934 536.345 217.62C534.152 220.061 531.228 221.282 527.572 221.282C520.506 221.282 515.389 223.601 512.221 228.239C509.053 232.634 507.469 239.347 507.469 248.38V319.056C507.469 332.728 504.301 343.469 497.966 351.282C491.63 359.094 482.248 363 469.821 363H434Z" fill="white"/>
<path d="M106 363C106 343.225 99.177 333.338 85.531 333.338H79.3172C71.0322 333.338 66.8896 328.211 66.8896 317.958V251.31C66.8896 240.568 65.4276 231.657 62.5034 224.577C59.3356 217.498 54.0965 211.639 46.7862 207C54.0965 202.362 59.3356 196.502 62.5034 189.423C65.4276 182.343 66.8896 173.432 66.8896 162.69V96.0423C66.8896 85.7887 71.0322 80.662 79.3172 80.662H85.531C99.177 80.662 106 70.7747 106 51H70.1793C57.7517 51 48.3701 54.9061 42.0345 62.7183C35.6988 70.5305 32.531 81.2723 32.531 94.9437V165.62C32.531 174.653 30.9471 181.488 27.7793 186.127C24.6115 190.521 19.4942 192.718 12.4276 192.718C9.01608 192.718 6.09195 194.061 3.65517 196.746C1.21839 199.432 0 202.85 0 207C0 211.394 1.21839 214.934 3.65517 217.62C5.84827 220.061 8.77241 221.282 12.4276 221.282C19.4942 221.282 24.6115 223.601 27.7793 228.239C30.9471 232.634 32.531 239.347 32.531 248.38V319.056C32.531 332.728 35.6988 343.469 42.0345 351.282C48.3701 359.094 57.7517 363 70.1793 363H106Z" fill="white"/>
</svg>
