<svg width="307" height="180" viewBox="0 0 307 180" fill="none" xmlns="http://www.w3.org/2000/svg">
<path d="M180.616 176.497L302.442 94.2084C305.376 92.2267 305.377 87.9074 302.445 85.9236L180.619 3.51004C177.298 1.26383 172.817 3.64263 172.817 7.65144V55.2613C172.817 55.8136 172.369 56.2613 171.817 56.2613H138.043C133.624 56.2613 130.043 59.843 130.043 64.2613V115.872C130.043 120.291 133.624 123.872 138.043 123.872H171.817C172.369 123.872 172.817 124.32 172.817 124.872V172.353C172.817 176.361 177.295 178.74 180.616 176.497ZM109.866 115.872V64.2613C109.866 59.843 106.284 56.2613 101.866 56.2613H82.25C77.8317 56.2613 74.25 59.843 74.25 64.2613V115.872C74.25 120.291 77.8317 123.872 82.25 123.872H101.866C106.284 123.872 109.866 120.291 109.866 115.872ZM46.0732 56.2613H37.6158C33.1976 56.2613 29.6159 59.843 29.6159 64.2613V115.872C29.6159 120.291 33.1976 123.872 37.6159 123.872H46.0732C50.4915 123.872 54.0732 120.291 54.0732 115.872V64.2613C54.0732 59.843 50.4914 56.2613 46.0732 56.2613ZM11.2988 117.223V62.9107C11.2988 59.2383 8.32174 56.2613 4.64939 56.2613C0.977033 56.2613 -2 59.2383 -2 62.9107V117.223C-2 120.895 0.977033 123.872 4.64939 123.872C8.32175 123.872 11.2988 120.895 11.2988 117.223Z" stroke="url(#paint0_linear_508_98)" stroke-width="4"/>
<defs>
<linearGradient id="paint0_linear_508_98" x1="305" y1="90.5029" x2="-1.31327e-06" y2="90.5029" gradientUnits="userSpaceOnUse">
<stop stop-color="white" stop-opacity="0.4"/>
<stop offset="1" stop-color="white" stop-opacity="0"/>
</linearGradient>
</defs>
</svg>
