<svg width="516" height="204" viewBox="0 0 516 204" xmlns="http://www.w3.org/2000/svg">
<path d="M71.8103 1.20905C68.1474 2.60129 65.3636 4.46983 63.4589 6.81466C63.6054 10.0388 63.9351 12.5302 64.4479 14.2888L63.4589 21.653V34.7328L64.4479 40.3384L63.4589 46.8233C63.8984 51.6595 63.8984 56.0194 63.4589 59.903L64.4479 71.9935C64.4479 75.2177 64.1182 77.6724 63.4589 79.3578L64.4479 84.0841L63.4589 88.7004L64.4479 94.306L63.4589 98.9224C63.8984 101.267 63.8984 103.466 63.4589 105.517C64.4112 110.28 64.4112 114.933 63.4589 119.476C63.7519 124.386 63.7519 128.709 63.4589 132.446C64.4112 142.119 63.7886 150.509 61.5908 157.616L63.4589 160.364C59.5762 163.808 56.7924 167.838 55.1074 172.455L56.9755 175.312L55.9865 179.929C56.6459 180.881 56.9755 181.834 56.9755 182.787C56.6825 189.455 56.9755 195.024 57.8546 199.494C75.5831 198.101 88.3301 189.711 96.0955 174.323L97.9635 166.959V132.446L98.8426 125.961L97.9635 124.093V78.4784C98.2566 72.7629 97.9269 67.7802 96.9746 63.5302V52.4289C97.2676 47.7392 97.2676 44.3319 96.9746 42.2069V39.3491C97.7804 24.4741 97.4874 12.3836 96.0955 3.07759L93.2384 2.08836C85.473 3.55388 78.3303 3.26078 71.8103 1.20905ZM26.2071 122.224C18.4417 126.547 11.006 129.039 3.89991 129.698C-7.23535 169.121 5.47496 193.009 42.0308 201.362L41.1517 199.494C43.789 192.972 44.4117 186.45 43.0198 179.929V168.828L36.4266 165.091L34.6684 157.616V154.869L35.5475 151.131L34.6684 148.274L35.5475 144.537L34.6684 141.789V122.224H26.2071Z" fill="white"/>
<path d="M186.643 0.109914C186.35 1.50216 185.727 2.45474 184.775 2.96767V36.8211C189.903 39.6056 193.675 43.0496 196.093 47.153V52.7586C195.58 59.2069 195.873 64.8491 196.972 69.6853L200.708 70.6746L202.576 69.6853C207.631 66.681 212.356 64.8125 216.752 64.0797C219.389 61.7349 222.21 60.4526 225.213 60.2328C226.752 52.6121 226.422 45.431 224.224 38.6897C218.73 17.3664 206.203 4.50647 186.643 0.109914ZM164.995 1.09914C164.409 2.19828 163.786 2.82112 163.127 2.96767L160.27 3.84698L155.654 7.58405H152.797L149.94 8.57328C145.911 11.2112 142.138 13.0797 138.622 14.1789L137.743 17.0366L133.018 21.7629L132.139 23.6315C129.941 29.2737 127.743 33.6703 125.545 36.8211L124.556 43.306L123.677 49.0216V72.5431L122.688 77.1595L123.677 81.0065C123.018 84.7435 123.018 88.1875 123.677 91.3384V112.881C123.311 118.084 123.311 122.481 123.677 126.071L122.688 127.94C122.688 132.996 123.018 137.392 123.677 141.129V151.461C123.457 160.841 124.703 169.011 127.413 175.972C137.083 188.795 148.365 197.552 161.259 202.241L169.72 200.373L170.599 198.504C169.354 192.203 169.354 186.56 170.599 181.578C169.72 173.444 166.607 167.179 161.259 162.782L159.391 146.735C159.977 140.8 159.977 135.78 159.391 131.677L160.27 128.929L159.391 125.192L160.27 122.334V95.9547C159.977 91.2651 160.306 87.1983 161.259 83.7543C160.306 80.3103 160.306 77.1961 161.259 74.4116L160.27 71.5539V67.8168L161.259 64.9591C160.013 56.5323 159.684 49.6444 160.27 44.2953C162.467 38.7996 166.24 35.3556 171.588 33.9634V27.3685C171.588 22.3858 171.258 17.9892 170.599 14.1789C171.405 9.48922 171.735 5.42241 171.588 1.97845L164.995 1.09914ZM196.093 134.534C196.972 143.034 197.265 149.922 196.972 155.198C193.969 161.5 189.573 165.603 183.786 167.509L184.775 169.377L182.907 172.125C183.053 175.276 183.346 177.804 183.786 179.709V183.446C183.053 190.041 182.76 195.353 182.907 199.384C204.664 201.435 218.437 190.151 224.224 165.53C227.228 156.004 227.85 146.918 226.092 138.272L223.345 136.403L216.752 133.655L199.829 127.94L196.093 134.534Z" fill="white"/>
<path d="M343.782 3.62716L343.672 6.48491C343.306 11.3211 343.196 15.3879 343.342 18.6853L342.243 63.75C343.122 68.6595 343.342 73.056 342.903 76.9397L342.683 122.994C342.536 127.39 342.756 131.164 343.342 134.315C342.39 139.297 342.573 143.987 343.892 148.384C342.28 155.711 342.133 162.269 343.452 168.058L342.463 169.927C342.39 181.871 343.379 191.323 345.43 198.284C356.492 199.75 366.235 199.347 374.66 197.075L374.88 186.744L374.99 183.006C374.623 182.054 374.66 181.101 375.1 180.149V177.401L375.209 174.543C374.843 173.591 374.88 172.638 375.319 171.685V168.938L374.55 161.353C375.356 156.737 375.796 153 375.869 150.142L374.001 146.295L376.089 140.69L375.209 135.084C375.283 131.933 375.063 129.405 374.55 127.5C375.356 123.47 375.429 120.026 374.77 117.168L375.759 113.431L374.88 111.562L375.209 101.231C374.623 97.6401 374.367 94.4892 374.44 91.778L374.55 87.0517L374.88 75.8405L374.001 70.125L375.1 66.3879C374.807 64.7759 374.843 63.2371 375.209 61.7716C374.843 60.2328 374.88 58.9871 375.319 58.0345C374.587 54.2974 374.66 50.8168 375.539 47.5927C374.88 45.9073 374.623 44.3685 374.77 42.9763L373.891 40.9978V38.25L374.22 26.9289V24.0711L374.33 21.3233C374.77 13.9224 374.623 7.65733 373.891 2.52802L372.023 1.53879C362.499 2.56466 354.368 2.05172 347.628 0L343.782 3.62716ZM251.586 4.17672L251.037 25.7198L253.784 30.556L256.421 37.1509L257.19 43.7457L259.059 45.7241L258.949 48.472C262.392 55.1401 264.443 61.1487 265.102 66.4978C266.055 68.2565 266.641 69.8319 266.861 71.2241L268.619 75.9504C271.109 81.6659 272.538 86.722 272.904 91.1185L275.651 94.9655L275.542 97.8233C277.446 102.22 278.618 105.994 279.058 109.144C282.648 115.886 284.699 122.517 285.212 129.039L287.959 131.897L291.256 147.065L293.124 150.912L293.893 154.649L295.761 157.506L296.53 162.233L297.299 167.948C298.032 168.901 298.325 169.817 298.178 170.696L300.047 172.675L299.937 176.412L301.805 179.269L303.453 185.864C303.673 190.92 304.515 195.353 305.98 199.164C309.717 198.871 312.867 198.321 315.431 197.515L317.409 190.92C317.042 188.869 317.116 187 317.629 185.315L318.617 181.578L320.595 176.961L320.705 173.224L322.683 169.487L322.793 166.629V163.881L324.771 162.892L328.947 146.075L328.178 139.481C328.031 131.2 328.507 124.349 329.606 118.927L328.727 115.08L329.716 112.332C328.764 108.595 328.544 105.151 329.057 102L329.386 88.8103L329.496 85.9526L329.606 82.2155L328.727 79.3578L329.716 76.6099L328.837 74.6315C330.082 69.722 330.522 65.0323 330.156 60.5625C327.665 59.3168 325.174 58.6573 322.683 58.5841L321.584 62.3211L319.716 64.0797L318.617 69.6853L316.53 77.1595L311.475 91.1185L306.86 89.1401L305.98 83.5345C304.222 79.944 303.38 76.4634 303.453 73.0927C300.449 67.6703 298.691 62.6142 298.178 57.9246L297.409 52.319C296.384 50.6336 295.798 49.0216 295.651 47.4828L293.893 43.7457L290.486 27.6983L288.728 25.7198V21.9828C285.578 14.5819 283.563 7.95043 282.684 2.08836L276.091 1.97845L273.234 1.86853C270.157 1.86853 267.666 2.125 265.762 2.63793C262.099 1.53879 258.656 1.13578 255.432 1.42888L251.586 4.17672ZM251.257 91.5582L249.279 96.1746L250.158 100.901L249.938 107.496C248.619 114.457 248.18 120.392 248.619 125.302L248.29 138.491L249.059 143.218L249.828 151.681L249.608 159.155L248.619 162.013L248.399 172.345C248.766 176.009 248.656 179.453 248.07 182.677C249.242 188.466 249.425 193.485 248.619 197.735C249.572 199.42 250.158 200.996 250.377 202.461L253.234 203.45L255.103 202.571L257.96 203.56L260.707 202.681L271.146 203.011C274.736 202.425 277.849 202.168 280.487 202.241L281.476 199.494L282.574 195.756V192.899L280.926 186.304L281.366 167.509C280.047 162.746 278.582 158.935 276.97 156.078L276.091 151.351L274.333 147.614L273.564 142.888C271.659 139.151 270.816 135.377 271.036 131.567L269.168 129.588C268.582 123.726 267.154 118.67 264.883 114.42V111.672C262.025 105.517 259.974 100.131 258.729 95.5151L252.245 91.5582H251.257Z" fill="white"/>
<path d="M436.856 0.109914C435.831 0.842672 434.842 1.17241 433.889 1.09914C429.787 5.86207 425.318 9.04957 420.483 10.6616C419.018 12.7866 417.406 14.3987 415.648 15.4978C413.817 19.6746 411.912 23.1918 409.934 26.0496C408.029 29.6401 406.088 32.5345 404.11 34.7328C400.74 70.8578 413.89 95.222 443.559 107.825L444.548 109.804L447.406 110.683L448.395 112.662L451.252 113.651C455.208 116.289 458.394 118.853 460.812 121.345L467.515 123.213C473.595 128.856 477.771 134.608 480.042 140.47C479.236 151.608 474.438 159.338 465.647 163.662L466.636 178.06C465.903 187.733 466.196 195.756 467.515 202.131C476.159 201.545 483.558 199.274 489.712 195.317C509.272 179.416 517.917 159.888 515.646 136.733C513.887 133.875 512.935 130.981 512.789 128.05L510.811 124.203L502.129 106.836L500.261 105.957C496.159 101.121 492.313 97.5668 488.723 95.2953L484.877 91.4483C479.236 88.8103 474.731 85.6228 471.361 81.8858C458.468 76.8297 447.918 69.7586 439.713 60.6724C439.64 55.9095 439.97 52.0625 440.702 49.1315C442.607 46.0539 444.512 43.4892 446.417 41.4375C446.856 38.5065 447.515 35.9418 448.395 33.7435L447.406 30.8858L448.395 29.0172C448.175 25.1336 448.468 21.5797 449.274 18.3556C448.321 12.347 448.028 7.21767 448.395 2.96767C444.219 1.13578 440.373 0.18319 436.856 0.109914ZM459.823 3.9569C460.775 6.375 461.105 8.93966 460.812 11.6509V33.7435L464.658 39.569C468.247 41.694 470.812 44.2586 472.35 47.2629C472.277 51.1466 472.606 54.6638 473.339 57.8147L476.196 59.7931H479.053L482.899 58.8039H486.745C487.771 58.0711 488.76 57.7414 489.712 57.8147H492.569C499.163 56.569 504.62 55.9095 508.942 55.8362C510.701 50.0474 510.701 44.625 508.942 39.569C500.151 15.8276 484.108 3.00431 460.812 1.09914L459.823 3.9569ZM425.318 137.612C407.59 137.392 399.238 142.228 400.264 152.121C406.711 176.961 420.483 193.631 441.581 202.131H444.548L451.252 204C453.01 189.931 453.01 178.39 451.252 169.377C440.702 163.002 434.622 152.414 433.01 137.612H425.318Z" fill="white"/>
</svg>
