<svg width="69" height="71" viewBox="0 0 69 71" fill="none" xmlns="http://www.w3.org/2000/svg">
<path d="M12.4007 17.6845C11.2788 27.1715 13.4175 38.1662 23.1231 47.8718C32.5462 57.2949 43.2026 59.9574 52.9103 58.8994C41.497 67.4047 25.2288 66.4767 14.8735 56.1214C4.39656 45.6444 3.5716 29.1123 12.4007 17.6845ZM10.7487 10.7487C-2.89813 24.3956 -2.89813 46.5993 10.7487 60.2462C24.3956 73.893 46.5993 73.893 60.2462 60.2462C64.1524 56.34 67.5409 51.5779 68.8897 46.7395C60.504 52.5967 42.621 59.1201 27.2479 43.747C11.6665 28.1656 19.2149 9.22459 24.2554 2.1052C19.2602 4.28721 14.6549 6.84252 10.7487 10.7487ZM33.433 33.433C37.3 31.3726 41.9425 31.3747 45.8074 33.4371C43.7512 29.566 43.7512 24.9256 45.8094 21.0607C41.9425 23.1169 37.3041 23.1189 33.433 21.0627C35.4933 24.9256 35.4933 29.566 33.433 33.433ZM49.9363 16.9338C52.5164 15.5623 55.6058 15.5623 58.1879 16.9359C56.8103 14.3579 56.8123 11.2622 58.1838 8.6863C55.6079 10.0578 52.5143 10.0578 49.9342 8.6863C51.3057 11.2664 51.3078 14.3579 49.9363 16.9338ZM29.3124 0.434664C31.3747 4.29959 31.3727 8.94204 29.3185 12.807C33.1917 10.7487 37.8259 10.7508 41.6991 12.809C39.6346 8.94204 39.6367 4.29959 41.6867 0.438787C37.83 2.49293 33.1835 2.49087 29.3124 0.434664Z" fill="white"/>
</svg>
