<svg width="71" height="71" viewBox="0 0 71 71" fill="none" xmlns="http://www.w3.org/2000/svg">
<path d="M20.203 53.1299L11.8111 61.5218L9.68635 59.397L18.0782 51.0052C18.6701 51.7662 18.2992 51.5107 18.9983 52.2099C19.6975 52.909 19.442 52.538 20.203 53.1299ZM12.3801 33.7924L0.496573 33.7924L0.496574 37.6249L12.3801 37.6249C12.1367 35.6862 12.1367 35.7311 12.3801 33.7924ZM37.4137 12.5912L37.4137 0.707729L33.5812 0.707728L33.5813 12.5912C35.5178 12.3499 35.4751 12.352 37.4137 12.5912ZM18.9983 19.2115C19.6975 18.5124 19.442 18.8834 20.203 18.2914L11.8111 9.89956L9.68635 12.0243L18.0782 20.4162C18.6701 19.6552 18.2992 19.9107 18.9983 19.2115ZM50.9966 53.2099C50.2975 53.909 51.553 52.538 50.7919 53.1299L59.1838 61.5218L61.3086 59.397L52.9167 51.0052C52.3248 51.7662 51.6958 52.5107 50.9966 53.2099ZM50.7919 18.2914C51.553 18.8834 51.2975 18.5124 51.9966 19.2115C52.6958 19.9107 52.3248 19.6552 52.9167 20.4162L61.3086 12.0244L59.1838 9.89956L50.7919 18.2914ZM58.6169 37.6269H70.4963L70.4984 33.7924L58.619 33.7924C58.8582 35.7311 58.8582 35.6862 58.6169 37.6269ZM33.5792 58.8281L33.5792 70.7075L37.4116 70.7075L37.4116 58.8281C35.4751 59.0694 35.5178 59.0714 33.5792 58.8281ZM26.2479 44.9603C30.7975 49.5099 40.1974 49.5099 44.7471 44.9603C49.2967 40.4106 49.2967 31.0108 44.7471 26.4611C40.1974 21.9115 30.7975 21.9115 26.2479 26.4611C21.6983 31.0108 21.6983 40.4106 26.2479 44.9603ZM47.8718 23.3363C54.7066 30.1711 54.7066 41.2503 47.8718 48.0851C41.0371 54.9198 29.9579 54.9198 23.1231 48.0851C16.2883 41.2503 16.2883 30.1711 23.1231 23.3363C29.9579 16.5015 41.0371 16.5015 47.8718 23.3363Z" fill="white"/>
</svg>
